<svg xmlns="http://www.w3.org/2000/svg" viewBox="0 0 120 120" role="img" aria-label="Pickleball paddle and ball">
  <g transform="rotate(-14 52 58)">
    <ellipse cx="50" cy="46" rx="32" ry="40" fill="#7cb518" stroke="#4f7a10" stroke-width="4"/>
    <rect x="43" y="82" width="14" height="32" rx="6" fill="#123449" stroke="#0b2029" stroke-width="2"/>
    <g fill="#f5f7f4" opacity="0.88">
      <circle cx="38" cy="24" r="2.6"/>
      <circle cx="50" cy="20" r="2.6"/>
      <circle cx="62" cy="24" r="2.6"/>
      <circle cx="33" cy="36" r="2.6"/>
      <circle cx="50" cy="34" r="2.6"/>
      <circle cx="67" cy="36" r="2.6"/>
      <circle cx="33" cy="50" r="2.6"/>
      <circle cx="50" cy="48" r="2.6"/>
      <circle cx="67" cy="50" r="2.6"/>
      <circle cx="38" cy="62" r="2.6"/>
      <circle cx="50" cy="62" r="2.6"/>
      <circle cx="62" cy="62" r="2.6"/>
    </g>
  </g>
  <g>
    <circle cx="90" cy="30" r="21" fill="#f4d35e" stroke="#c9a63e" stroke-width="3"/>
    <g fill="#c9a63e">
      <circle cx="82" cy="20" r="2.1"/>
      <circle cx="94" cy="18" r="2.1"/>
      <circle cx="100" cy="28" r="2.1"/>
      <circle cx="96" cy="39" r="2.1"/>
      <circle cx="84" cy="40" r="2.1"/>
      <circle cx="78" cy="30" r="2.1"/>
      <circle cx="90" cy="30" r="2.1"/>
    </g>
  </g>
</svg>
